# xmcd CD database file
#
# Track frame offsets:
#	183
#	11800
#	24978
#	43263
#	53088
#	71393
#	84768
#	99515
#	115740
#	128598
#	138473
#	153330
#	163870
#	176155
#	192823
#
# Disc length: 2728 seconds
#
# Revision: 1
# Processed by: cddbd v1.5.1PL2 Copyright (c) Steve Scherf et al.
# Submitted via: CDex 1.51
#
DISCID=bd0aa60f
DTITLE=Various Artist - 60 Golden Reggae and Rhythm Hits - CD03
DYEAR=1992
DGENRE=Rhythmic Soul
TTITLE0=Soul Sister, Brown Sugar
TTITLE1=Crabs In My Pants
TTITLE2=Everybody Join Hands
TTITLE3=Baby Don't Weep
TTITLE4=Concret Jungel
TTITLE5=Memphis
TTITLE6=Share Your Love With Me
TTITLE7=Kinky Reggae
TTITLE8=Working In The Coalmine
TTITLE9=Back Out
TTITLE10=My World Is Blue
TTITLE11=Expressway To Your Heart
TTITLE12=Can't You See
TTITLE13=Baby We Got A Date
TTITLE14=Bring It On Home To Me
EXTD=YEAR: 1992
EXTT0=
EXTT1=
EXTT2=
EXTT3=
EXTT4=
EXTT5=
EXTT6=
EXTT7=
EXTT8=
EXTT9=
EXTT10=
EXTT11=
EXTT12=
EXTT13=
EXTT14=
PLAYORDER=
